# xmcd CD database file
#
# Track frame offsets:
#	150
#	13928
#	28190
#	40351
#	55931
#	67936
#	82197
#	96198
#	110576
#	125195
#	141225
#	155002
#	166014
#	180888
#	194731
#	210025
#	226425
#	239256
#	253175
#	266067
#	279986
#	295005
#	312273
#	328230
#	341831
#
# Disc length: 4780 seconds
#
# Revision: 0
# Processed by: cddbd v1.4PL0 Copyright (c) Steve Scherf et al.
# Submitted via: CDex 1.50
#
DISCID=7a12aa19
DTITLE=Oscar Peterson - Genesis
DYEAR=2002
DGENRE=Jazz
TTITLE0=Sleepy Time Gal
TTITLE1=Rockin' In Rhythm
TTITLE2=Fine And Dandy
TTITLE3=My Heart Stood Still
TTITLE4=Somebody Loves Me
TTITLE5=At Sundown
TTITLE6=Smoke Gets In Your Eyes
TTITLE7=Deep Purple
TTITLE8=Robbin's Nest
TTITLE9=I'll Remember April
TTITLE10=Lover
TTITLE11=Exactly Like You
TTITLE12=Easy To Love
TTITLE13=Takin' A Chance On Love
TTITLE14=Squatty Roo
TTITLE15=After All
TTITLE16=Caravan
TTITLE17=Summer Nocturne
TTITLE18=Salute To Garner
TTITLE19=I Get A Kick Out Of You
TTITLE20=What's New
TTITLE21=Dark Eyes
TTITLE22=What Is It?
TTITLE23=The Way You Look Tonight
TTITLE24=Minor Blues
EXTD=YEAR: 2002
EXTT0=
EXTT1=
EXTT2=
EXTT3=
EXTT4=
EXTT5=
EXTT6=
EXTT7=
EXTT8=
EXTT9=
EXTT10=
EXTT11=
EXTT12=
EXTT13=
EXTT14=
EXTT15=
EXTT16=
EXTT17=
EXTT18=
EXTT19=
EXTT20=
EXTT21=
EXTT22=
EXTT23=
EXTT24=
PLAYORDER=
